<svg width="190" height="143" viewBox="0 0 190 143" fill="none" xmlns="http://www.w3.org/2000/svg">
<path d="M114 3L124 13.5L132 34.5C143.885 52.4915 130.217 52.5122 127.5 64C144.934 59.8645 146.175 67.0562 153.5 76C159.716 56.121 171.214 61.635 181.205 69.8391C181.735 70.2746 182.209 70.7949 182.603 71.3571C193.09 86.335 191.116 86.9747 180 102.5C185.23 124.831 176.986 145.901 153.5 137.5C143.852 146.751 143.075 139.88 129.5 137.5C118.425 142.902 111.223 140.673 110 125.5C104.033 126.443 101.66 120.446 95.5001 114C90.1477 124.796 85.2811 127.771 72.0001 125.5C62.2246 135.725 56.7579 136.8 47.0001 128.5C35.3791 123.991 25.5629 125.7 35.0001 109L28.5001 114C20.8339 115.425 11.7482 114.517 6.99996 109C-1.80734 93.1838 -1.37986 78.8162 3.5 63C10.2324 51.9334 14.7797 49.3207 25 54.5C26.8482 35.062 35.0119 24.8261 53.0001 25C74.7818 0.365704 88.4868 -1.70169 114 3Z" fill="white"/>
</svg>
