<svg width="1728" height="488" viewBox="0 0 1728 488" fill="none" xmlns="http://www.w3.org/2000/svg">
<path d="M64.2337 96.2094C66.1832 98.8432 67.1579 100.16 68.4016 100.955C69.7533 101.819 71.3335 102.257 72.9371 102.211C74.4125 102.169 75.9258 101.541 78.9525 100.286L106.619 88.807C110.086 87.3686 111.82 86.6493 113.462 86.6685C115.245 86.6894 116.971 87.3056 118.364 88.4193C119.647 89.4449 120.532 91.0996 122.303 94.4091L135.083 118.286C135.407 118.893 135.57 119.196 135.705 119.511C135.852 119.854 135.976 120.206 136.074 120.567C136.164 120.897 136.225 121.235 136.349 121.912L146.296 176.439C147.314 182.017 147.823 184.806 149.239 186.452C150.771 188.233 153.009 189.251 155.359 189.234C157.53 189.219 159.966 187.769 164.838 184.868L247.979 135.37C251.01 133.566 252.525 132.664 254.072 132.429C255.753 132.174 257.472 132.461 258.979 133.249C260.366 133.974 261.506 135.32 263.785 138.011L414.309 315.738C417.162 319.106 418.588 320.79 420.281 321.534C422.117 322.34 424.189 322.428 426.086 321.779C427.835 321.181 429.399 319.623 432.525 316.507L563.438 186.031C566.428 183.052 567.923 181.562 569.609 180.959C571.44 180.305 573.445 180.34 575.252 181.057C576.917 181.718 578.359 183.258 581.244 186.339L695.983 308.892C700.892 314.135 703.346 316.757 705.744 317.298C708.334 317.883 711.045 317.145 712.981 315.328C714.773 313.646 715.56 310.142 717.133 303.133L752.364 146.197C753.529 141.006 754.112 138.41 755.509 136.856C757.021 135.172 759.176 134.208 761.439 134.202C763.529 134.197 765.853 135.492 770.5 138.082L775.947 141.118C779.448 143.069 781.199 144.045 782.918 144.189C784.784 144.346 786.646 143.843 788.179 142.768C789.592 141.777 790.613 140.053 792.655 136.604L812.634 102.855C816.007 97.1573 817.693 94.3086 819.808 93.2556C822.094 92.1176 824.785 92.1389 827.053 93.313C829.151 94.3994 830.792 97.2744 834.074 103.024L887.253 196.191C887.518 196.655 887.65 196.887 887.766 197.126C887.893 197.387 888.006 197.655 888.103 197.929C888.193 198.179 888.266 198.436 888.412 198.95L919.507 308.423C921.089 313.99 921.879 316.773 923.475 318.284C925.201 319.918 927.564 320.7 929.925 320.418C932.106 320.157 934.401 318.394 938.99 314.868L1150.69 152.228C1153.02 150.445 1154.18 149.554 1155.45 149.128C1156.84 148.666 1158.32 148.592 1159.75 148.915C1161.06 149.211 1162.3 149.983 1164.79 151.527L1349.72 266.356C1352.52 268.095 1353.92 268.964 1355.37 269.242C1356.95 269.546 1358.59 269.364 1360.07 268.721C1361.43 268.129 1362.6 266.974 1364.95 264.663L1597.54 35.947C1597.88 35.6114 1598.05 35.4436 1598.23 35.2866C1598.43 35.1154 1598.63 34.9539 1598.84 34.8026C1599.04 34.664 1599.24 34.5368 1599.64 34.2825L1645.88 5.29376C1650.82 2.19547 1653.29 0.646325 1655.5 0.598378C1657.89 0.5465 1660.17 1.56356 1661.73 3.37164C1663.17 5.04273 1663.67 7.91527 1664.68 13.6604L1676.71 82.3346C1676.81 82.9244 1676.86 83.2193 1676.94 83.5085C1677.02 83.8239 1677.12 84.1341 1677.23 84.4375C1677.34 84.7156 1677.47 84.9859 1677.73 85.5265L1706.56 146.067C1706.71 146.398 1706.79 146.563 1706.88 146.725C1706.97 146.901 1707.07 147.073 1707.18 147.242C1707.28 147.396 1707.38 147.546 1707.59 147.847L1725.76 173.798C1726.55 174.923 1726.94 175.486 1727.23 176.094C1727.54 176.757 1727.76 177.461 1727.89 178.184C1728 178.848 1728 179.535 1728 180.909V445L1697.4 474.031C1694.6 476.686 1693.2 478.013 1691.63 478.581C1689.91 479.198 1688.04 479.213 1686.32 478.623C1684.73 478.08 1683.31 476.775 1680.47 474.166L1615 414L1581.69 404.511C1568.47 400.745 1561.86 398.862 1557.39 398.509C1548.36 397.795 1551.66 397.518 1542.88 399.726C1538.53 400.819 1521.71 408.835 1488.09 424.867C1468.12 434.388 1440.22 439.928 1403.1 431.26C1402.68 431.162 1402.47 431.112 1402.28 431.078C1402.07 431.039 1401.88 431.012 1401.66 430.989C1401.48 430.97 1401.28 430.958 1400.88 430.936C1300.15 425.224 1241.73 436.262 1141.6 481.279C1141.02 481.539 1140.73 481.669 1140.44 481.773C1140.13 481.886 1139.81 481.98 1139.48 482.053C1139.18 482.12 1138.87 482.165 1138.26 482.254C1029.15 498.041 975.889 481.868 903.363 409.459C900.992 407.092 899.806 405.908 898.531 405.313C897.069 404.631 895.686 404.42 894.086 404.635C892.692 404.822 891.119 405.644 887.973 407.287C866.356 418.583 851.412 418.555 827.898 394.223C826.239 392.506 825.409 391.647 824.502 391.104C823.513 390.512 822.413 390.141 821.267 390.015C820.216 389.899 819.19 390.058 817.137 390.374C779.282 396.218 734.53 414.022 710.443 424.037C700.101 428.338 694.93 430.488 694.467 430.618C692.142 431.271 695.327 430.706 692.92 430.892C692.44 430.929 686.336 430.666 674.13 430.14C556.123 425.057 487.247 427.924 444.246 444.059C412.381 456.016 396.448 461.994 391.617 462.362C382.525 463.052 384.636 463.384 376.194 459.939C371.707 458.108 363.481 451.582 347.027 438.53C314.37 412.627 284.513 399.825 241.241 390.929C238.658 390.398 237.366 390.133 236.368 389.61C235.222 389.009 234.378 388.281 233.617 387.236C232.952 386.324 232.499 385.082 231.593 382.597C222.337 357.221 186.987 270.64 136 272C95.9572 273.068 53.4283 328.185 47.262 336.464C47.0325 336.772 46.9177 336.926 46.7786 337.14C46.6383 337.356 46.4779 337.633 46.3609 337.863C46.2448 338.09 46.1532 338.302 45.97 338.725L0 445V337.5V257.25V178.037C0 177.67 0 177.486 0.00842789 177.302C0.0176214 177.102 0.0343293 176.902 0.0585161 176.703C0.0806887 176.521 0.111248 176.34 0.172366 175.977L18.1546 69.2565C19.5959 60.7028 20.3165 56.426 22.2452 54.589C24.3245 52.6085 27.3057 51.8944 30.0566 52.7177C32.6083 53.4815 35.1886 56.9676 40.3491 63.9398L64.2337 96.2094Z" fill="#EE964B"/>
</svg>
