<svg width="1728" height="482" viewBox="0 0 1728 482" fill="none" xmlns="http://www.w3.org/2000/svg">
<path d="M64.2337 96.2094C66.1832 98.8432 67.1579 100.16 68.4016 100.955C69.7533 101.819 71.3335 102.257 72.9371 102.211C74.4125 102.169 75.9258 101.541 78.9525 100.286L106.619 88.807C110.086 87.3686 111.82 86.6493 113.462 86.6685C115.245 86.6894 116.971 87.3056 118.364 88.4193C119.647 89.4449 120.532 91.0996 122.303 94.4091L135.083 118.286C135.407 118.893 135.57 119.196 135.705 119.511C135.852 119.854 135.976 120.206 136.074 120.567C136.164 120.897 136.225 121.235 136.349 121.912L146.296 176.439C147.314 182.017 147.823 184.806 149.239 186.452C150.771 188.233 153.009 189.251 155.359 189.234C157.53 189.219 159.966 187.769 164.838 184.868L247.979 135.37C251.01 133.566 252.525 132.664 254.072 132.429C255.753 132.174 257.472 132.461 258.979 133.249C260.366 133.974 261.506 135.32 263.785 138.011L414.309 315.738C417.162 319.106 418.588 320.79 420.281 321.534C422.117 322.34 424.189 322.428 426.086 321.779C427.835 321.181 429.399 319.623 432.525 316.507L563.438 186.031C566.428 183.052 567.923 181.562 569.609 180.959C571.44 180.305 573.445 180.34 575.252 181.057C576.917 181.718 578.359 183.258 581.244 186.339L695.983 308.892C700.892 314.135 703.346 316.757 705.744 317.298C708.334 317.883 711.045 317.145 712.981 315.328C714.773 313.646 715.56 310.142 717.133 303.133L752.364 146.197C753.529 141.006 754.112 138.41 755.509 136.856C757.021 135.172 759.176 134.208 761.439 134.202C763.529 134.197 765.853 135.492 770.5 138.082L775.947 141.118C779.448 143.069 781.199 144.045 782.918 144.189C784.784 144.346 786.646 143.843 788.179 142.768C789.592 141.777 790.613 140.053 792.655 136.604L812.634 102.855C816.007 97.1573 817.693 94.3086 819.808 93.2556C822.094 92.1176 824.785 92.1389 827.053 93.313C829.151 94.3994 830.792 97.2744 834.074 103.024L887.253 196.191C887.518 196.655 887.65 196.887 887.766 197.126C887.893 197.387 888.006 197.655 888.103 197.929C888.193 198.179 888.266 198.436 888.412 198.95L919.507 308.423C921.089 313.99 921.879 316.773 923.475 318.284C925.201 319.918 927.564 320.7 929.925 320.418C932.106 320.157 934.401 318.394 938.99 314.868L1150.69 152.228C1153.02 150.445 1154.18 149.554 1155.45 149.128C1156.84 148.666 1158.32 148.592 1159.75 148.915C1161.06 149.211 1162.3 149.983 1164.79 151.527L1349.72 266.356C1352.52 268.095 1353.92 268.964 1355.37 269.242C1356.95 269.546 1358.59 269.364 1360.07 268.721C1361.43 268.129 1362.6 266.974 1364.95 264.663L1597.54 35.947C1597.88 35.6114 1598.05 35.4436 1598.23 35.2866C1598.43 35.1154 1598.63 34.9539 1598.84 34.8026C1599.04 34.664 1599.24 34.5368 1599.64 34.2825L1645.88 5.29376C1650.82 2.19547 1653.29 0.646325 1655.5 0.598378C1657.89 0.5465 1660.17 1.56356 1661.73 3.37164C1663.17 5.04273 1663.67 7.91527 1664.68 13.6604L1676.71 82.3346C1676.81 82.9244 1676.86 83.2193 1676.94 83.5085C1677.02 83.8239 1677.12 84.1341 1677.23 84.4375C1677.34 84.7156 1677.47 84.9859 1677.73 85.5265L1706.36 145.648C1706.58 146.127 1706.7 146.366 1706.8 146.612C1706.9 146.88 1706.99 147.154 1707.07 147.432C1707.14 147.687 1707.2 147.947 1707.3 148.467L1727.74 247.257C1727.83 247.698 1727.88 247.918 1727.91 248.14C1727.95 248.382 1727.97 248.626 1727.99 248.87C1728 249.094 1728 249.319 1728 249.769V339.295C1728 359.26 1728 369.242 1725.72 371.573C1723.28 374.073 1719.49 374.697 1716.38 373.114C1713.47 371.637 1710.27 362.184 1703.86 343.276L1702.54 339.397C1701.06 335.023 1700.32 332.837 1698.96 331.501C1697.48 330.053 1695.5 329.232 1693.43 329.212C1691.53 329.193 1689.45 330.214 1685.31 332.256L1666.02 341.772C1664.44 342.55 1663.65 342.939 1662.98 343.469C1662.26 344.046 1661.63 344.745 1661.15 345.535C1660.7 346.26 1660.4 347.09 1659.82 348.749L1639.58 405.823C1638.53 408.768 1638.01 410.24 1637.1 411.333C1636.12 412.521 1634.81 413.399 1633.34 413.861C1631.99 414.286 1630.42 414.212 1627.3 414.065L1383 402.5H897.596C897.207 402.5 897.013 402.5 896.819 402.491C896.608 402.48 896.397 402.462 896.187 402.435C895.995 402.41 895.804 402.376 895.421 402.308L826.517 390.037C825.453 389.848 824.921 389.753 824.388 389.73C823.806 389.705 823.224 389.744 822.65 389.845C822.125 389.938 821.61 390.102 820.58 390.43L756 411L398.565 481.105C396.967 481.418 396.168 481.575 395.376 481.572C394.512 481.569 393.655 481.426 392.838 481.149C392.087 480.894 391.382 480.487 389.972 479.672L235.906 390.602C235.232 390.212 234.895 390.017 234.58 389.792C234.237 389.547 233.914 389.275 233.613 388.978C233.338 388.706 233.089 388.407 232.59 387.809L143.454 280.937C140.972 277.962 139.732 276.474 138.225 275.726C136.589 274.913 134.725 274.685 132.941 275.078C131.298 275.441 129.735 276.585 126.608 278.873L49.2197 335.51C48.2617 336.211 47.7827 336.561 47.3659 336.972C46.9116 337.419 46.5124 337.919 46.1768 338.461C45.869 338.959 45.6333 339.504 45.162 340.593L23.7809 390.023C17.3198 404.96 14.0893 412.428 11.1953 413.689C8.08976 415.042 4.46874 414.292 2.15559 411.818C0 409.511 0 401.374 0 385.1V337.5V178.037C0 177.67 0 177.486 0.00842789 177.302C0.0176214 177.102 0.0343293 176.902 0.0585161 176.703C0.0806887 176.521 0.111248 176.34 0.172366 175.977L18.1546 69.2565C19.5959 60.7028 20.3165 56.426 22.2452 54.589C24.3245 52.6085 27.3057 51.8944 30.0566 52.7177C32.6083 53.4815 35.1886 56.9676 40.3491 63.9398L64.2337 96.2094Z" fill="#EE964B"/>
</svg>
