<svg width="1728" height="332" viewBox="0 0 1728 332" fill="none" xmlns="http://www.w3.org/2000/svg">
<path d="M241 197L251 207.5L259 228.5L251 262.5L280.5 271.5L291.471 267.012C296.734 264.859 302.5 268.73 302.5 274.416V303L280.5 322.5L251 332L238 314L222.5 308L199 319.5L174 322.5L168.5 297L155.5 308L139.5 303V262.5L152 240.5L180 219L241 197Z" fill="white"/>
<path d="M569.5 34L579.5 44.5L587.5 65.5L579.5 99.5L609 108.5L619.971 104.012C625.234 101.859 631 105.73 631 111.416V140L609 159.5L579.5 169L566.5 151L551 145L527.5 156.5L502.5 159.5L497 134L484 145L468 140V99.5L480.5 77.5L508.5 56L569.5 34Z" fill="white"/>
<path d="M731.5 282L721.5 271.5L713.5 250.5L721.5 216.5L692 207.5L681.029 211.988C675.766 214.141 670 210.27 670 204.584V176L692 156.5L721.5 147L734.5 165L750 171L773.5 159.5L798.5 156.5L804 182L817 171L833 176V216.5L820.5 238.5L792.5 260L731.5 282Z" fill="white"/>
<path d="M941.5 237L931.5 226.5L923.5 205.5L931.5 171.5L902 162.5L891.029 166.988C885.766 169.141 880 165.27 880 159.584V131L902 111.5L931.5 102L944.5 120L960 126L983.5 114.5L1008.5 111.5L1014 137L1027 126L1043 131V171.5L1030.5 193.5L1002.5 215L941.5 237Z" fill="white"/>
<path d="M1433.1 26.8719L1446.6 32.1619L1462.73 47.8134L1469.84 82.0088L1500.38 77.6984L1508.43 68.9942C1512.29 64.8186 1519.15 65.8901 1521.55 71.0438L1533.63 96.9495L1521.94 123.92L1499.22 144.997L1479.83 134.178L1463.24 135.29L1446.81 155.645L1425.42 168.929L1409.65 148.142L1402.52 163.606L1385.91 165.836L1368.79 129.131L1370.82 103.909L1387.11 72.5903L1433.1 26.8719Z" fill="white"/>
<path d="M89.5 91.5L99.5 102L107.5 123L99.5 157L129 166L139.971 161.512C145.234 159.359 151 163.23 151 168.916V197.5L129 217L99.5 226.5L86.5 208.5L71 202.5L47.5 214L22.5 217L0.5 197.5V135L28.5 113.5L89.5 91.5Z" fill="white"/>
<path d="M1713.77 97.4871L1728.27 97.8406L1748.77 107.033L1767.16 136.731L1794.38 122.236L1798.97 111.305C1801.16 106.061 1807.98 104.721 1812 108.742L1832.21 128.953L1830.44 158.298L1816.3 185.875L1794.38 182.34L1779.18 189.057L1770.69 213.806L1755.14 233.605L1733.22 219.463L1731.8 236.434L1716.95 244.212L1688.32 215.574L1681.6 191.179L1686.19 156.177L1713.77 97.4871Z" fill="white"/>
</svg>
